<?xml version="1.0" standalone="no"?>
<!DOCTYPE svg PUBLIC "-//W3C//DTD SVG 20010904//EN"
 "http://www.w3.org/TR/2001/REC-SVG-20010904/DTD/svg10.dtd">
<svg version="1.0" xmlns="http://www.w3.org/2000/svg"
 width="180.000000pt" height="180.000000pt" viewBox="0 0 180.000000 180.000000"
 preserveAspectRatio="xMidYMid meet">
<metadata>
Created by potrace 1.11, written by Peter Selinger 2001-2013
</metadata>
<g transform="translate(0.000000,180.000000) scale(0.100000,-0.100000)"
fill="#000000" stroke="none">
<path d="M725 1705 c-252 -54 -480 -238 -585 -468 -76 -168 -96 -383 -51 -552
96 -361 395 -609 761 -632 383 -24 730 216 849 586 12 35 21 69 21 74 0 5 -26
-15 -58 -45 -57 -52 -111 -78 -163 -78 -16 0 -40 -16 -67 -44 -60 -62 -122
-90 -199 -91 -69 0 -107 20 -131 69 -29 58 17 145 84 162 16 4 76 0 134 -8
116 -17 112 -18 132 47 19 63 16 145 -8 185 -37 64 -93 96 -251 144 -19 6 -26
0 -47 -42 -102 -202 -310 -437 -446 -505 -175 -88 -301 -67 -373 62 -74 130
-33 353 98 536 81 113 176 174 274 175 68 0 112 -26 147 -86 24 -41 26 -52 22
-125 -3 -44 -9 -84 -14 -89 -7 -7 -21 -6 -42 1 -27 9 -30 14 -22 33 8 23 13
64 11 103 -1 12 -15 38 -32 58 -26 29 -38 35 -70 35 -143 0 -321 -243 -337
-461 -10 -147 68 -242 185 -224 154 23 336 191 501 462 l53 87 -38 13 c-97 33
-98 124 -3 173 105 54 174 4 147 -106 -8 -29 -7 -30 41 -43 73 -18 172 -68
210 -104 57 -54 76 -102 76 -187 0 -41 -6 -92 -13 -113 -7 -21 -11 -41 -8 -43
7 -7 63 22 105 53 19 14 54 53 79 87 l45 61 -7 79 c-32 375 -278 663 -644 757
-88 23 -272 25 -366 4z m92 -736 c30 -10 30 -11 19 -48 -13 -44 -15 -46 -56
-38 -28 6 -29 8 -19 39 6 18 12 39 15 46 4 15 4 15 41 1z m-15 -120 c-11 -46
-32 -78 -47 -73 -13 5 -15 15 -10 48 4 22 9 44 11 48 7 12 49 -9 46 -23z m-42
-104 c0 -24 -24 -44 -37 -31 -9 8 14 56 27 56 5 0 10 -11 10 -25z"/>
<path d="M1080 1190 c-14 -10 -23 -21 -20 -23 6 -5 70 -27 70 -24 0 1 4 17 9
35 9 29 8 32 -12 32 -12 0 -33 -9 -47 -20z"/>
<path d="M1180 600 c-26 -26 -25 -45 2 -64 39 -28 116 -13 170 32 l32 27 -65
12 c-91 17 -116 16 -139 -7z"/>
</g>
</svg>
